<svg id="Layer_1" data-name="Layer 1" xmlns="http://www.w3.org/2000/svg" viewBox="0 0 514.817 84.119"><defs><style>.cls-1{fill:#8ea0b2;}</style></defs><title>deepsensors</title><g id="Capa_1"><g id="_95066152" data-name=" 95066152"><path class="cls-1" d="M59.119,70.613a2.579,2.579,0,1,0,1.459,3.343A2.579,2.579,0,0,0,59.119,70.613Zm-.959,4.893c-3.225,0-3.225-5,0-5S61.385,75.506,58.16,75.506Z" transform="translate(-12.082 -20.301)"/><path class="cls-1" d="M46.452,95.956a5.12,5.12,0,0,1-.109,3.34c.032-.07.076-.131.1-.2A4.338,4.338,0,0,0,46.452,95.956Z" transform="translate(-12.082 -20.301)"/><path class="cls-1" d="M53.971,20.682a5.5,5.5,0,1,0,3.11,7.124A5.5,5.5,0,0,0,53.971,20.682ZM52,29.319a3.8,3.8,0,0,1-.864-.1c-3.628-.667-3.555-6.4.206-6.88.042-.007.087-.007.129-.013a3.68,3.68,0,0,1,.373-.037c.019,0,.035.005.054.005s.046-.005.071-.005a3.225,3.225,0,0,1,2.543,1.1C56.241,25.346,55.406,29.319,52,29.319Z" transform="translate(-12.082 -20.301)"/><path class="cls-1" d="M79.7,46.389a5.521,5.521,0,1,0,3.124,7.155A5.522,5.522,0,0,0,79.7,46.389Zm-2.006,8.617c-4.514,0-4.514-7,0-7S82.206,55.006,77.692,55.006Z" transform="translate(-12.082 -20.301)"/><path class="cls-1" d="M59.669,69.211a4.085,4.085,0,1,0,2.312,5.3A4.085,4.085,0,0,0,59.669,69.211Zm-1.509,6.3c-3.225,0-3.225-5,0-5S61.385,75.506,58.16,75.506Z" transform="translate(-12.082 -20.301)"/><g id="_95136032" data-name=" 95136032"><rect class="cls-1" x="44.898" y="83.185" width="11.04" height="2" transform="translate(-59.761 61.416) rotate(-57.642)"/></g><g id="_95135960" data-name=" 95135960"><rect class="cls-1" x="38.901" y="47.945" width="2" height="30.535" transform="translate(-46.67 49.179) rotate(-62.548)"/></g><g id="_95135888" data-name=" 95135888"><rect class="cls-1" x="59.177" y="61.819" width="15.881" height="2" transform="translate(-36.644 49.297) rotate(-47.334)"/></g><g id="_95135816" data-name=" 95135816"><rect class="cls-1" x="22.694" y="36.589" width="26.366" height="2" transform="translate(-27.551 9.31) rotate(-37.504)"/></g><g id="_95135744" data-name=" 95135744"><rect class="cls-1" x="64.155" y="27.83" width="2.001" height="22.085" transform="translate(-21.144 34.323) rotate(-42.804)"/></g><path class="cls-1" d="M44.906,91.055a6.92,6.92,0,1,0,3.916,8.969A6.92,6.92,0,0,0,44.906,91.055Zm-2.569,10.92c-5.8,0-5.8-9,0-9S48.141,101.975,42.337,101.975Z" transform="translate(-12.082 -20.301)"/><path class="cls-1" d="M74.945,49.4a3.438,3.438,0,0,0-.507.859,3.477,3.477,0,0,0,.709,3.649A3.85,3.85,0,0,1,74.945,49.4Z" transform="translate(-12.082 -20.301)"/><path class="cls-1" d="M80.618,49.667a3.877,3.877,0,0,1-.3,4.127,3.407,3.407,0,0,0,.3-4.127Z" transform="translate(-12.082 -20.301)"/><path class="cls-1" d="M21.532,44.642a6.92,6.92,0,1,0,3.916,8.969A6.921,6.921,0,0,0,21.532,44.642ZM19.025,55.581c-5.8,0-5.8-9,0-9S24.828,55.581,19.025,55.581Z" transform="translate(-12.082 -20.301)"/><path class="cls-1" d="M59.119,70.613a2.579,2.579,0,1,0,1.459,3.343A2.579,2.579,0,0,0,59.119,70.613Zm-.959,4.893c-3.225,0-3.225-5,0-5S61.385,75.506,58.16,75.506Z" transform="translate(-12.082 -20.301)"/><path class="cls-1" d="M46.452,95.956a5.12,5.12,0,0,1-.109,3.34c.032-.07.076-.131.1-.2A4.338,4.338,0,0,0,46.452,95.956Z" transform="translate(-12.082 -20.301)"/><path class="cls-1" d="M444.934,46.436a18.1,18.1,0,1,0,18.048,18.1A18.073,18.073,0,0,0,444.934,46.436Zm2.724,29.013a8.9,8.9,0,0,1-5.171.042c-11.65-.623-11.483-21.97.517-21.97.039,0,.074.005.112.006a8.686,8.686,0,0,1,3.42,0C458.284,53.56,458.657,74.1,447.658,75.449Z" transform="translate(-12.082 -20.301)"/><path class="cls-1" d="M455.9,64.653a12.049,12.049,0,0,0-1.324-5.522,13.858,13.858,0,0,1-1.116,12.8A11.936,11.936,0,0,0,455.9,64.653Z" transform="translate(-12.082 -20.301)"/><path class="cls-1" d="M445,75.854a8.861,8.861,0,0,1-2.487-.354,8.664,8.664,0,0,1-2.4-.457,10.41,10.41,0,0,0,11.064-.883,8.1,8.1,0,0,1-3.487,1.277A8.775,8.775,0,0,1,445,75.854Z" transform="translate(-12.082 -20.301)"/><path class="cls-1" d="M443.116,53.527a8.686,8.686,0,0,1,3.42,0,9.025,9.025,0,0,1,2.12.249,10.3,10.3,0,0,0-7.131-.121A9.249,9.249,0,0,1,443,53.522C443.043,53.521,443.078,53.526,443.116,53.527Z" transform="translate(-12.082 -20.301)"/><path class="cls-1" d="M328.9,46.551c-4.435-.414-18.339,2.981-18.34,19.049.711,12.284,11.125,17.167,18.827,17.1,9.137.305,15.476-5.611,17.274-8.895l-5.8-2.543c-4.067,6.717-20.342,9.676-22.9-4.928H346.75C347.033,57.057,341.033,46.863,328.9,46.551Zm8.113,14.665c-.032,0-.068.008-.1.008-.07,0-.139-.011-.208-.012q-1.08-.011-2.161-.029h-2.879a26,26,0,0,1-2.649,0,8.837,8.837,0,0,1-1.6.154,8.678,8.678,0,0,1-1.625-.161c-.091.009-.184.019-.271.021a3.1,3.1,0,0,1-.418-.024,3.548,3.548,0,0,1-.535.056,3.261,3.261,0,0,1-.544-.05,3.447,3.447,0,0,1-.962-.007,3.636,3.636,0,0,1-.88.008h-1.673a4.762,4.762,0,0,1-1.326-.032c-.04.052-.075.094-.091.094a3.972,3.972,0,0,1-.5-.016l.032-.058c-.018.02-.039.042-.048.042a1.125,1.125,0,0,1-.225-.015c-.047.028-.035.009.008-.033l.067-.118a.141.141,0,0,1-.053-.037c-.028-.028.058-.2.19-.43a.183.183,0,0,1,.016-.026c-.021-.016-.055-.012-.065-.043-.01-.015.025-.087.074-.175,0-.021-.016-.038-.012-.059a.432.432,0,0,1,.061-.168c-.009-.018-.021-.033-.03-.051a1.05,1.05,0,0,1,.173-.349.235.235,0,0,1,0-.026.45.45,0,0,1,.063-.172.724.724,0,0,1-.016-.125.746.746,0,0,1,.125-.278v-.065a.849.849,0,0,1,.146-.315,1.433,1.433,0,0,1,.171-.315,1.379,1.379,0,0,1,.3-.667,1.194,1.194,0,0,1,.04-.222,1.632,1.632,0,0,1,.215-.366,1.477,1.477,0,0,1,.488-.755,1.551,1.551,0,0,1,.271-.38,1.4,1.4,0,0,1,.25-.457,1.9,1.9,0,0,1,.334-.312,1.691,1.691,0,0,1,.409-.448c.01-.018.017-.035.027-.053a1.568,1.568,0,0,1,.229-.292,2.735,2.735,0,0,1,.6-.452,2.82,2.82,0,0,1,.609-.435,5.535,5.535,0,0,1,1.655-.833,7.679,7.679,0,0,1,3.292-.7,3.264,3.264,0,0,1,.984-.141,3.383,3.383,0,0,1,.679.072,3.182,3.182,0,0,1,.922.163.276.276,0,0,1,.027.008,2.9,2.9,0,0,1,1.165.286,2.5,2.5,0,0,1,.7.281,2.538,2.538,0,0,1,.342.111,2.908,2.908,0,0,1,.9.333,2.473,2.473,0,0,1,.718.424A2.15,2.15,0,0,1,335,54a2,2,0,0,1,.385.255,2.016,2.016,0,0,1,.9.754,2.27,2.27,0,0,1,.644.535,1.764,1.764,0,0,1,.651.713,1.766,1.766,0,0,1,.234.193,1.306,1.306,0,0,1,.195.323.741.741,0,0,1,.08.091,1.432,1.432,0,0,1,.163.148,1.368,1.368,0,0,1,.282.509,1.981,1.981,0,0,1,.142.241,1.43,1.43,0,0,1,.228.389,1.614,1.614,0,0,1,.17.289,1.248,1.248,0,0,1,.046.19,1.317,1.317,0,0,1,.146.336,1.5,1.5,0,0,1,.083.259.585.585,0,0,1,.141.317v.036a.475.475,0,0,1,.078.23c0,.016,0,.029.005.044a.41.41,0,0,1,.057.175V60.1c.044.089.079.158.078.159a.272.272,0,0,0-.025.016.41.41,0,0,1,.056.172c.006.032-.016.059-.022.088a.516.516,0,0,1,.042.121c.007.135.022.268.038.4l.056.114h-.066a.163.163,0,0,0,.073.035C338.91,61.226,337.96,61.225,337.008,61.216Z" transform="translate(-12.082 -20.301)"/><path class="cls-1" d="M266.731,63.406c-1.247-16.477-19.029-21.64-28.805-10.53V47.568l-12.408-.052v5.921h5.734V91.091h-6.239v5.9h19.525V91.116H238V77.477C249.75,88.538,268.117,80.4,266.731,63.406Zm-13.781,12.1a8.5,8.5,0,0,1-3.779.848c-.1,0-.194-.014-.294-.017-.125.005-.246.017-.373.017a8.612,8.612,0,0,1-3.384-.669c-10.017-1.9-9.879-20.3.421-21.733a8.447,8.447,0,0,1,3.963-.932c.095,0,.184.01.277.013.076,0,.146-.013.223-.013a8.356,8.356,0,0,1,7.595,4.63C261.408,63.321,259.858,73.544,252.95,75.507Z" transform="translate(-12.082 -20.301)"/><path class="cls-1" d="M249.5,53.021c.095,0,.184.01.277.013.076,0,.146-.013.223-.013a9.119,9.119,0,0,1,2.1.239,11.57,11.57,0,0,0-2.71-.393,11.947,11.947,0,0,0-6.484,1.9,8.193,8.193,0,0,1,2.629-.816A8.47,8.47,0,0,1,249.5,53.021Z" transform="translate(-12.082 -20.301)"/><path class="cls-1" d="M254.029,53.984a8.85,8.85,0,0,1,3.57,3.667c3.809,5.669,2.259,15.893-4.648,17.855a8.5,8.5,0,0,1-3.779.848c-.1,0-.194-.014-.294-.017-.125,0-.246.017-.373.017a8.568,8.568,0,0,1-3.422-.687,8.132,8.132,0,0,1-2.564-.955,11.4,11.4,0,0,0,6.874,1.911C261.457,76.3,263.247,58.649,254.029,53.984Z" transform="translate(-12.082 -20.301)"/><path class="cls-1" d="M203.963,46.619c-4.435-.414-18.339,2.981-18.339,19.049.71,12.284,11.124,17.167,18.826,17.1,9.138.305,15.477-5.611,17.275-8.895l-5.8-2.543c-4.068,6.716-20.342,9.676-22.9-4.928h28.786C222.1,57.125,216.1,46.932,203.963,46.619Zm10.579,14.73a.719.719,0,0,1-.121-.017.087.087,0,0,1-.088.061c-.035,0-.073-.013-.108-.016h0c-.047,0-.1-.017-.147-.022-.011,0-.01.022-.024.022s-.059-.011-.087-.013a.07.07,0,0,1-.054.029,1.475,1.475,0,0,1-.23-.035c-.015.014-.025.035-.051.035a1.445,1.445,0,0,1-.21-.032c-.01,0-.011.016-.024.016-.041,0-.083-.01-.125-.014-.017,0-.028.011-.047.014a9.268,9.268,0,0,1-1.563.016c-.045,0-.091-.018-.137-.022-.362.014-.643.015-.754.015-.194,0-.887.021-1.643-.016h-.06c-.157,0-.639.014-1.216,0-.368.014-.655.016-.768.016-.183,0-.809.019-1.513-.009-.368.038-.539.052-.186-.009l-.178-.01c-.11,0-.215,0-.335,0s-.219,0-.273,0c-.181,0-.8.016-1.495-.012-.155,0-.352,0-.568,0-.485.024-.878.026-1.016.026-.165,0-.687.015-1.3,0l-.322,0c-.15,0-.6.011-1.146,0h-.025c-.1,0-.342.005-.652.006a12.456,12.456,0,0,1-2.726-.021,1.508,1.508,0,0,1-.162.035,4.856,4.856,0,0,1-1.3,0c-.583-.108-.46-.673-.137-1.279.018-.112.045-.223.068-.314s.04-.157.063-.234c.006-.023.022-.047.029-.07a2.2,2.2,0,0,1,.167-.4l.016-.028a2.5,2.5,0,0,1,.388-.985c.021-.037.047-.071.069-.108a2.832,2.832,0,0,1,.337-.783,12.785,12.785,0,0,1,4-4,4.816,4.816,0,0,1,.606-.3c.819-.973,6.292-1.044,7.6-.258.049.019.094.049.143.07s.128.048.194.074.14.054.211.084c.043.016.094.045.139.063a3.885,3.885,0,0,1,.506.22,3.3,3.3,0,0,1,.8.331,9.242,9.242,0,0,1,1.442.971,14.055,14.055,0,0,1,1.139.96,10.865,10.865,0,0,1,1.853,2.161l.094.152a3.152,3.152,0,0,1,.434.825c.025.08.092.224.121.29a2.362,2.362,0,0,1,.25.578,2,2,0,0,1,.106.317,1.543,1.543,0,0,1,.176.575.328.328,0,0,1,.057.135.293.293,0,0,1-.038.118.67.67,0,0,1,.068.279.408.408,0,0,1,.018.239C214.826,61.237,214.764,61.349,214.542,61.349Z" transform="translate(-12.082 -20.301)"/><path class="cls-1" d="M120.187,33.231a48.283,48.283,0,0,0-9.188-.7l-21.244.014v6.1l6.7.064-.032,36.78-6.667.1-.031,6.121,24.37-.273a37.972,37.972,0,0,0,9.528-1.471C142.434,75.308,144.093,37.023,120.187,33.231Zm9.775,27.445a13.51,13.51,0,0,1-.726,3.493,13.249,13.249,0,0,1-.391,1.348,12.524,12.524,0,0,1-1.767,3.658,10.959,10.959,0,0,1-5.65,4.565,6.979,6.979,0,0,1-2.038.732,7.6,7.6,0,0,1-2.086.456,8.013,8.013,0,0,1-1.875.285,8.371,8.371,0,0,1-1.582.15c-.063,0-.122-.008-.185-.009s-.125.009-.19.009c-.257,0-.506-.013-.749-.034-.226.018-.452.034-.689.034-.108,0-.206-.015-.312-.019-.125.005-.246.019-.375.019a5.592,5.592,0,0,1-.92-.086.438.438,0,0,1-.267.117.433.433,0,0,1-.254-.105.338.338,0,0,1-.152.042.326.326,0,0,1-.153-.042.429.429,0,0,1-.253.1.386.386,0,0,1-.1-.031.345.345,0,0,1-.179.062.384.384,0,0,1-.179-.054.377.377,0,0,1-.133.054c-.01,0-.02-.008-.03-.009a.313.313,0,0,1-.323-.01.362.362,0,0,1-.388-.013.379.379,0,0,1-.2.063.287.287,0,0,0-.312,0,.284.284,0,0,0-.313,0,.374.374,0,0,1-.145-.044.368.368,0,0,1-.136.044.29.29,0,0,1-.105-.032c-.016.031-.031.063-.051.063h-2.594c-.013,0-.022-.028-.034-.042-.029.017-.063.023-.091.042-.007,0-.015-.009-.023-.034-.008.006-.015.019-.024.019-.159,0-.139-.917-.14-1a8.9,8.9,0,0,1,.028-1.484,10.146,10.146,0,0,1,.01-1.351l.01-.154c0-.138,0-.25,0-.277V68.451c.016.2.017.206,0,.011a7.928,7.928,0,0,1-.016-.912c0-.025,0-.065,0-.1-.1-2.243-.1-4.676.009-6.9,0-.125.011-.249.018-.374.011-.194.023-.383.035-.573a8.7,8.7,0,0,1,.015-1.531,5.47,5.47,0,0,1,0-.587,3.022,3.022,0,0,1-.1-.969v-.208c0-.024,0-.123,0-.246a3.138,3.138,0,0,1,.126-1.446c-.076-1.357-.12-2.715-.12-4.068v-.188c0-1.917.052-3.847.223-5.763a2.624,2.624,0,0,1-.225-.982V41.283c0-.112,0-.278.018-.458-.193-.874-.011-2.024.6-2.024a.49.49,0,0,1,.248.075.468.468,0,0,1,.335-.148.494.494,0,0,1,.242.077.459.459,0,0,1,.175-.035.577.577,0,0,1,.083.015,1.14,1.14,0,0,1,.121-.016,1.5,1.5,0,0,1,.277.036.438.438,0,0,1,.207-.056.414.414,0,0,1,.086.02.419.419,0,0,1,.1-.02.492.492,0,0,1,.2.042H108.2a.506.506,0,0,1,.152.028,1.6,1.6,0,0,1,.187-.019,3.8,3.8,0,0,1,.525.052,3.389,3.389,0,0,1,.506-.052h.031a3.411,3.411,0,0,1,.7.074,6.094,6.094,0,0,1,.914.082l.022,0c.027,0,.051,0,.078,0s.061,0,.093,0,.062,0,.095,0a7.108,7.108,0,0,1,.829.055c.161-.008.317-.023.483-.023.228,0,.445.016.663.032h.025c.246,0,.482.016.716.035.235-.021.473-.035.722-.035a7.991,7.991,0,0,1,2.359.343,11.675,11.675,0,0,1,6.737,2.417A11.1,11.1,0,0,1,127,44.93c.048.065.089.135.136.2a12.935,12.935,0,0,1,2.605,6.452,14.288,14.288,0,0,1,.457,5.046A14.49,14.49,0,0,1,129.962,60.676Z" transform="translate(-12.082 -20.301)"/><path class="cls-1" d="M117.332,39.372c.517.034,1.022.085,1.506.166a21.408,21.408,0,0,0-3.012-.473A7.606,7.606,0,0,1,117.332,39.372Z" transform="translate(-12.082 -20.301)"/><path class="cls-1" d="M111.216,38.959l.022,0c.027,0,.051,0,.078,0s.061,0,.093,0,.062,0,.095,0a7.108,7.108,0,0,1,.829.055c.161-.008.317-.023.483-.023.228,0,.445.016.663.032h.025c.246,0,.482.016.716.035.235-.021.473-.035.722-.035.3,0,.59.015.872.043-.521-.046-1.053-.082-1.612-.095l-4.15-.12c.043.006.083.021.125.029A5.765,5.765,0,0,1,111.216,38.959Z" transform="translate(-12.082 -20.301)"/><path class="cls-1" d="M106.175,38.751a.414.414,0,0,1,.086.02.419.419,0,0,1,.1-.02.492.492,0,0,1,.2.042h1.544l-4.264-.123V39.7c.078-.5.29-.9.647-.9a.49.49,0,0,1,.248.075.468.468,0,0,1,.335-.148.494.494,0,0,1,.242.077.459.459,0,0,1,.175-.035.577.577,0,0,1,.083.015,1.14,1.14,0,0,1,.121-.016,1.5,1.5,0,0,1,.277.036A.417.417,0,0,1,106.175,38.751Z" transform="translate(-12.082 -20.301)"/><path class="cls-1" d="M103.963,57.49a3.022,3.022,0,0,1-.1-.969v-.208c0-.024,0-.123,0-.246a3.138,3.138,0,0,1,.126-1.446c-.076-1.357-.12-2.715-.12-4.068v-.188c0-1.917.052-3.847.223-5.763a2.624,2.624,0,0,1-.225-.982V41.287c0-.116,0-.289.02-.476a1.167,1.167,0,0,1-.047-.183V61.816q.02-.641.05-1.262c0-.125.011-.249.018-.374.011-.194.023-.383.035-.573a8.7,8.7,0,0,1,.015-1.531A5.453,5.453,0,0,1,103.963,57.49Z" transform="translate(-12.082 -20.301)"/><path class="cls-1" d="M103.9,71.209V68.455c.016.2.017.206,0,.011a7.928,7.928,0,0,1-.016-.912c0-.02,0-.052,0-.075-.015-.332-.031-.663-.041-1V73.4c.006-.131.02-.26.038-.388a9.869,9.869,0,0,1,.008-1.376l.01-.154C103.894,71.348,103.9,71.235,103.9,71.209Z" transform="translate(-12.082 -20.301)"/><path class="cls-1" d="M119.441,74.454a7.564,7.564,0,0,1-2.133.474,8.082,8.082,0,0,1-1.877.286,8.374,8.374,0,0,1-1.583.15c-.063,0-.122-.008-.185-.009s-.125.009-.19.009c-.257,0-.506-.013-.749-.034-.226.018-.452.034-.689.034-.108,0-.206-.015-.312-.019-.125,0-.246.019-.375.019a5.592,5.592,0,0,1-.92-.086.438.438,0,0,1-.267.117.433.433,0,0,1-.254-.1.338.338,0,0,1-.152.042.326.326,0,0,1-.153-.042.429.429,0,0,1-.253.1.386.386,0,0,1-.1-.031.345.345,0,0,1-.179.062.384.384,0,0,1-.179-.054.377.377,0,0,1-.133.054c-.01,0-.02-.008-.03-.009a.313.313,0,0,1-.323-.01.362.362,0,0,1-.388-.013.379.379,0,0,1-.2.063.287.287,0,0,0-.312,0,.284.284,0,0,0-.313,0,.374.374,0,0,1-.145-.044.368.368,0,0,1-.136.044.311.311,0,0,1-.105-.032c-.013.024-.026.046-.041.051l7.318-.071a23.406,23.406,0,0,0,5.968-1.087C119.857,74.377,119.645,74.411,119.441,74.454Z" transform="translate(-12.082 -20.301)"/><path class="cls-1" d="M125.3,42.8a11.394,11.394,0,0,1,1.842,2.31c.038.053.069.109.106.162a12.978,12.978,0,0,1,2.5,6.319,14.291,14.291,0,0,1,.455,5.038,14.479,14.479,0,0,1-.234,4.045,13.507,13.507,0,0,1-.727,3.5,13.487,13.487,0,0,1-.384,1.33,12.525,12.525,0,0,1-1.7,3.583,10.92,10.92,0,0,1-1.039,1.45c3.162-3.466,3.8-8.055,4.149-11.364C130.447,56.492,130.905,47.879,125.3,42.8Z" transform="translate(-12.082 -20.301)"/><path id="_95066776" data-name=" 95066776" class="cls-1" d="M272.3,81.682l-.012-17.728,6.061-.05-.013,4.482c2.151,3.882,6.788,8.9,14,7.651,8.74-2.745,7.258-11.7,3.068-13.573-5.137-3.225-23.047-3.4-23.22-16.235-.223-3.494.514-13.8,14.108-14.555,4.941-.018,8.256,2.04,11.232,4.036l-.048-3.378,5.936.015.047,14.87-5.907-.01-.047-3.3c-1.692-2.614-4.843-6.495-11.928-5.8-5.113.733-6.734,3.414-6.814,6.031-.083,2.725,1.652,5.177,3.243,5.666,4.39,1.821,9.929,2.97,13.879,4.328,6.654,2.289,10.412,7.65,9.964,15.535-.472,3.882-3.612,12.042-14.242,12.825-4.826.106-8.627-1.033-13.211-4.82l-.05,4.015Z" transform="translate(-12.082 -20.301)"/><path id="_95066704" data-name=" 95066704" class="cls-1" d="M394.14,81.707l.031-11.726,5.823.005.1,1.184c.492,2.79,3.478,6.144,9.468,5.443,6.972-.755,6.847-6.147,3.4-7.47-4.253-2.006-18.551-1.034-18.875-11.847-.183-2.471,1.606-9.912,11.6-10.293,4.021,0,6.243.57,8.689,1.982l.015-1.476,5.927.01-.043,11.308-5.862-.007-.012-2.01c-1.392-1.849-3.423-4.62-9.028-4.21a5.329,5.329,0,0,0-4.907,3.2,2.852,2.852,0,0,0,1.821,3.8c3.608,1.288,8.911,1.6,12.156,2.557,5.471,1.619,8.273,5.956,7.538,11.682-.388,2.746-3.078,7.862-11.815,8.416-3.968.075-6.153-.1-10.1-2.455l-.015,1.9h-5.91Z" transform="translate(-12.082 -20.301)"/><path id="_95066632" data-name=" 95066632" class="cls-1" d="M498.858,81.707l-.09-11.7,6.055-.014.02,1.012c.493,2.791,3.427,6.332,9.417,5.631,6.972-.755,6.74-6.227,3.3-7.55C513.3,67.074,499.3,68.02,498.975,57.1c-.1-2.524,1.261-9.752,11.251-10.133,4.021,0,6.562.676,9.008,2.088l-.045-1.522,5.881-.05.036,11.307-5.863-.034-.01-1.849c-1.229-1.907-3.689-4.78-9.295-4.371-2.788.443-4.414,1.821-4.721,3.282a3.173,3.173,0,0,0,1.688,3.776c3.608,1.289,9.018,1.57,12.264,2.53,5.47,1.618,8.353,5.9,7.617,11.629-.388,2.745-3.238,7.915-11.976,8.469-3.968.076-6.037,0-9.981-2.354l0,1.837h-5.973Z" transform="translate(-12.082 -20.301)"/><path id="_95066560" data-name=" 95066560" class="cls-1" d="M351.646,53.463l-.017-5.882,12.606.046.026,4.076a28.469,28.469,0,0,1,8.3-4.236c6.1-1.918,10.663,1.146,11.787,4.725,1.039,2.454.528,15.581.633,23.535l5.824.035v5.944H378.409l-.125-24.763c-.284-3.3-3.438-4.864-7.7-3.125a28.951,28.951,0,0,0-6.3,3.711l-.046,18.18h5.931v6H351.574l.027-5.971h5.957l0-22.261-5.914-.012Z" transform="translate(-12.082 -20.301)"/><path id="_95066488" data-name=" 95066488" class="cls-1" d="M467.318,47.465l.006,6.01,6.922.009-.014,22.292-6.927-.041-.027,5.971h21.064V75.754l-7.449-.027.045-11.82c.316-6.688,3.555-8.842,6.366-9.608a51.785,51.785,0,0,1,7.5-.566l.013-6.758c-5.535-.343-12.679.437-15.258,8.177V47.6Z" transform="translate(-12.082 -20.301)"/><path class="cls-1" d="M162.526,46.525c-4.435-.414-18.339,2.981-18.34,19.049.711,12.284,11.125,17.167,18.827,17.1,9.137.3,15.476-5.611,17.274-8.895l-5.8-2.543c-4.067,6.717-20.342,9.676-22.9-4.928H180.38C180.665,57.03,174.665,46.837,162.526,46.525Zm10.212,14.793a.585.585,0,0,1-.075-.015c-.784.005-1.566.024-2.342,0h-4.489a.247.247,0,0,1-.029-.006h-.009c-.024,0-.045.007-.071.007-.047,0-.086-.012-.133-.013s-.085.013-.133.013-.086-.012-.133-.013c-.1.009-.186.029-.289.029-.075,0-.138-.018-.211-.021s-.136.021-.211.021-.155-.02-.237-.023c-.108.009-.212.023-.326.023a2.707,2.707,0,0,1-.453-.05c-.065,0-.121.019-.188.019-.028,0-.051-.007-.078-.008a.643.643,0,0,1-.078.008c-.063,0-.117-.016-.179-.018a2.752,2.752,0,0,1-.336.033c-.108,0-.2-.023-.305-.03-.051,0-.095.015-.148.015-.1,0-.188-.022-.285-.028-.062,0-.122.014-.185.014a2.4,2.4,0,0,1-.341-.037,4.267,4.267,0,0,1-.518.051c-.066,0-.123-.016-.188-.019s-.121.019-.188.019-.128-.017-.2-.02l-.073.007c-.042,0-.078.012-.122.012l-.02,0c-.083.005-.16.018-.246.018-.04,0-.073-.01-.112-.011s-.089.011-.138.011c-.028,0-.051-.007-.079-.008s-.071.008-.109.008c-.061,0-.112-.015-.172-.017s-.111.017-.172.017-.112-.015-.171-.017-.111.017-.172.017-.112-.015-.172-.017-.111.017-.172.017c-.033,0-.061-.009-.094-.009a.434.434,0,0,0-.063.006l-.016,0h-.019c-.708,0-1.414-.041-2.122-.015a.376.376,0,0,1-.06-.01c-.074,0-.147,0-.221.01a.123.123,0,0,0-.02,0l-.012,0h-1.453l-.016,0-.016,0h-1.766a.518.518,0,0,1-.116-.023.5.5,0,0,1-.473-.828.74.74,0,0,1,.165-.373.492.492,0,0,1,.113-.458.512.512,0,0,1,.129-.316.436.436,0,0,1,.112-.283.477.477,0,0,1,.133-.36v-.015a.425.425,0,0,1,.137-.306.506.506,0,0,1,.041-.132.519.519,0,0,1,.1-.208,4.018,4.018,0,0,0,.422-.751.466.466,0,0,1,.226-.335c.012-.028.022-.058.034-.086s.032-.074.049-.11c.027-.06.068-.11.1-.167a3.12,3.12,0,0,1,.217-.393,2.782,2.782,0,0,1,.418-.556l0,0a2.566,2.566,0,0,1,.167-.2,2.726,2.726,0,0,1,.329-.407,4.9,4.9,0,0,1,1.015-.949,3.185,3.185,0,0,1,.5-.395c.069-.054.149-.1.223-.146a3.648,3.648,0,0,1,.357-.259,4.117,4.117,0,0,1,.582-.278,3.747,3.747,0,0,1,.833-.354c.01,0,.021,0,.031-.005.035-.014.071-.022.106-.034a2.743,2.743,0,0,1,.646-.2,3.035,3.035,0,0,1,.951-.207,3.808,3.808,0,0,1,1-.152c.038,0,.074.01.111.011a3.837,3.837,0,0,1,.722-.074,4.213,4.213,0,0,1,.463.048c.042,0,.083-.013.125-.013a3.832,3.832,0,0,1,.906.117c.083.008.162.03.244.043a3.925,3.925,0,0,1,.914.2,3.993,3.993,0,0,1,.568.14,3.658,3.658,0,0,1,.791.271,4.072,4.072,0,0,1,.608.232,3.636,3.636,0,0,1,.478.23,2.887,2.887,0,0,1,.552.329.472.472,0,0,1,.131.079l.008,0a.513.513,0,0,1,.211.115.434.434,0,0,1,.212.146.459.459,0,0,1,.1.061.472.472,0,0,1,.182.111.425.425,0,0,1,.2.159.451.451,0,0,1,.269.17.4.4,0,0,1,.139.118.427.427,0,0,1,.211.146.442.442,0,0,1,.245.221,8.725,8.725,0,0,1,.555.458.442.442,0,0,1,.238.25.436.436,0,0,1,.228.246.442.442,0,0,1,.166.2.426.426,0,0,1,.22.2.443.443,0,0,1,.165.2.51.51,0,0,1,.154.212c.062.165.267.3.387.42a.466.466,0,0,1,.123.217.393.393,0,0,1,.042.14.5.5,0,0,1,.037.063.475.475,0,0,1,.159.271c.006.012,0,.026.008.039a.491.491,0,0,1,.169.318.462.462,0,0,1,.188.29.45.45,0,0,1,.053.138.494.494,0,0,1,.111.18.578.578,0,0,1,.048.166.493.493,0,0,1,.131.273,11.609,11.609,0,0,0,.149.387.545.545,0,0,1,.028.162.487.487,0,0,1,.1.261.539.539,0,0,1,.064.258c.01.021.016.043.028.064a.45.45,0,0,1,.06.25A.493.493,0,0,1,172.738,61.318Z" transform="translate(-12.082 -20.301)"/><path class="cls-1" d="M151.915,60.548a.5.5,0,0,1,.078-.113.74.74,0,0,1,.165-.374.494.494,0,0,1,.113-.458.512.512,0,0,1,.129-.316.436.436,0,0,1,.112-.283.477.477,0,0,1,.133-.36v-.015a.425.425,0,0,1,.137-.306.506.506,0,0,1,.041-.132.519.519,0,0,1,.1-.208,4.018,4.018,0,0,0,.422-.751.466.466,0,0,1,.226-.335c.012-.028.022-.058.034-.086s.032-.074.049-.11c.027-.06.068-.11.1-.167a3.12,3.12,0,0,1,.217-.393,2.782,2.782,0,0,1,.418-.556l0,0c.055-.067.107-.135.169-.2a2.666,2.666,0,0,1,.333-.41,2.63,2.63,0,0,1,.214-.269A12.689,12.689,0,0,0,151.915,60.548Z" transform="translate(-12.082 -20.301)"/><path class="cls-1" d="M171.668,57.1a.483.483,0,0,1,.091.167.4.4,0,0,1,.044.145.434.434,0,0,1,.037.063.477.477,0,0,1,.16.271c.006.012,0,.026.008.039a.491.491,0,0,1,.169.318.462.462,0,0,1,.188.29.45.45,0,0,1,.053.138.494.494,0,0,1,.111.18.578.578,0,0,1,.048.166.493.493,0,0,1,.131.273,11.609,11.609,0,0,0,.149.387.545.545,0,0,1,.028.162.487.487,0,0,1,.1.261.539.539,0,0,1,.064.258c.01.021.016.043.028.064a.45.45,0,0,1,.06.25.5.5,0,0,1-.4.783.585.585,0,0,1-.075-.015c-.784.005-1.566.024-2.342,0h-4.489a.247.247,0,0,1-.029-.006h-.009c-.024,0-.045.007-.071.007-.047,0-.086-.012-.133-.013s-.085.013-.133.013-.086-.012-.133-.013c-.1.009-.186.029-.289.029-.075,0-.138-.018-.211-.021s-.136.021-.211.021-.155-.02-.237-.023c-.108.009-.212.023-.326.023a2.707,2.707,0,0,1-.453-.05c-.065,0-.121.019-.188.019-.028,0-.051-.007-.078-.008a.643.643,0,0,1-.078.008c-.063,0-.117-.016-.179-.018a2.752,2.752,0,0,1-.336.033c-.108,0-.2-.023-.305-.03-.051,0-.095.015-.148.015-.1,0-.188-.022-.285-.028-.062,0-.122.014-.185.014a2.4,2.4,0,0,1-.341-.037,4.267,4.267,0,0,1-.518.051c-.066,0-.123-.016-.188-.019s-.121.019-.188.019-.128-.017-.2-.02l-.073.007c-.042,0-.078.012-.122.012l-.02,0c-.083.005-.16.018-.246.018-.04,0-.073-.01-.112-.011s-.089.011-.138.011c-.028,0-.051-.007-.079-.008s-.071.008-.109.008c-.061,0-.112-.015-.172-.017s-.111.017-.172.017-.112-.015-.171-.017-.111.017-.172.017-.112-.015-.172-.017-.111.017-.172.017c-.033,0-.061-.009-.094-.009a.434.434,0,0,0-.063.006l-.016,0h-.019c-.708,0-1.414-.041-2.122-.015a.376.376,0,0,1-.06-.01c-.074,0-.147,0-.221.01a.123.123,0,0,0-.02,0l-.012,0h-1.453l-.016,0-.016,0h-1.766a.458.458,0,0,1-.109-.022.532.532,0,0,1-.625-.453c-.044.174-.092.341-.132.52h21.63A9.415,9.415,0,0,0,171.668,57.1Z" transform="translate(-12.082 -20.301)"/><path class="cls-1" d="M167.756,53.634a.538.538,0,0,1,.2.1.443.443,0,0,1,.215.146.415.415,0,0,1,.1.062.472.472,0,0,1,.182.111.425.425,0,0,1,.2.159.451.451,0,0,1,.269.17.4.4,0,0,1,.139.118.427.427,0,0,1,.211.146.442.442,0,0,1,.245.221,8.725,8.725,0,0,1,.555.458.442.442,0,0,1,.238.25.436.436,0,0,1,.228.246.442.442,0,0,1,.166.2.426.426,0,0,1,.22.2.443.443,0,0,1,.165.2.51.51,0,0,1,.154.212c.062.164.263.3.384.417a11.971,11.971,0,0,0-4.345-3.731,1.707,1.707,0,0,1,.277.2A.464.464,0,0,1,167.756,53.634Z" transform="translate(-12.082 -20.301)"/><path class="cls-1" d="M207.232,52.7c.062.019.128.048.194.074s.14.054.211.084c.043.016.094.045.139.063a3.885,3.885,0,0,1,.506.22,3.3,3.3,0,0,1,.8.331,9.242,9.242,0,0,1,1.442.971,14.055,14.055,0,0,1,1.139.96,10.865,10.865,0,0,1,1.853,2.161l.094.152a3.152,3.152,0,0,1,.434.825c.025.08.092.224.121.29a2.362,2.362,0,0,1,.25.578,2,2,0,0,1,.106.317,1.543,1.543,0,0,1,.176.575.328.328,0,0,1,.057.135.293.293,0,0,1-.038.118.67.67,0,0,1,.068.279.408.408,0,0,1,.018.239c.023.166-.038.277-.261.277a.719.719,0,0,1-.121-.017.087.087,0,0,1-.088.061c-.035,0-.073-.013-.108-.016h0c-.047,0-.1-.017-.147-.022-.011,0-.01.022-.024.022s-.059-.011-.087-.013a.07.07,0,0,1-.054.029,1.475,1.475,0,0,1-.23-.035c-.015.014-.025.035-.051.035a1.445,1.445,0,0,1-.21-.032c-.01,0-.011.016-.024.016-.041,0-.083-.01-.125-.014-.017,0-.028.011-.047.014a3.988,3.988,0,0,1-.6.031h2.315c-.538-4.212-3.927-7.53-7.9-8.815.021.011.029.025.048.036C207.138,52.647,207.183,52.678,207.232,52.7Z" transform="translate(-12.082 -20.301)"/><path class="cls-1" d="M211.66,61.393c-.045,0-.091-.018-.137-.022-.362.014-.643.015-.754.015-.194,0-.887.021-1.643-.016h-.06c-.157,0-.639.014-1.216,0-.368.014-.655.016-.768.016-.183,0-.81.019-1.515-.01-.143.015-.269.028-.335.033h6.915C211.984,61.4,211.823,61.4,211.66,61.393Z" transform="translate(-12.082 -20.301)"/><path class="cls-1" d="M196.662,54.96a10.879,10.879,0,0,1,2.224-1.776,4.787,4.787,0,0,1,.636-.309.907.907,0,0,1,.093-.093,9.877,9.877,0,0,0-4.717,4.383A10.962,10.962,0,0,1,196.662,54.96Z" transform="translate(-12.082 -20.301)"/><path class="cls-1" d="M193.886,61.389c-.583-.108-.46-.673-.137-1.279.018-.112.045-.223.068-.314s.04-.157.063-.234c.006-.023.022-.047.029-.07a2.2,2.2,0,0,1,.167-.4l.016-.028a2.5,2.5,0,0,1,.388-.985c.021-.035.045-.068.066-.1a1.776,1.776,0,0,1,.109-.333,15.72,15.72,0,0,0-1.344,3.771h.859C194.075,61.4,193.981,61.407,193.886,61.389Z" transform="translate(-12.082 -20.301)"/><path class="cls-1" d="M205.206,61.356c-.11,0-.215,0-.335-.005s-.219,0-.273,0c-.181,0-.8.016-1.5-.012-.155,0-.352,0-.568,0-.485.024-.878.026-1.016.026-.165,0-.687.015-1.3,0l-.322,0c-.15,0-.6.011-1.147,0h-.024c-.1,0-.35.006-.668.006-.142.011-.279.023-.432.033h7.548a2.016,2.016,0,0,1,.213-.042C205.324,61.364,205.266,61.36,205.206,61.356Z" transform="translate(-12.082 -20.301)"/><path class="cls-1" d="M205.485,52.2a10.664,10.664,0,0,0-4.216.048A16.807,16.807,0,0,1,205.485,52.2Z" transform="translate(-12.082 -20.301)"/><path class="cls-1" d="M318.622,61.169c-.018.02-.039.042-.048.042a1.125,1.125,0,0,1-.225-.015c-.047.028-.035.009.008-.033l.067-.118a.141.141,0,0,1-.053-.037c-.028-.028.058-.2.19-.43a.183.183,0,0,1,.016-.026c-.021-.016-.055-.012-.065-.043-.01-.015.025-.087.074-.175,0-.021-.016-.038-.012-.059a.432.432,0,0,1,.061-.168c-.009-.018-.021-.033-.03-.051a1.05,1.05,0,0,1,.173-.349.235.235,0,0,1,0-.026.45.45,0,0,1,.063-.172.724.724,0,0,1-.016-.125.746.746,0,0,1,.125-.278v-.065a.849.849,0,0,1,.146-.315,1.433,1.433,0,0,1,.171-.315,1.379,1.379,0,0,1,.3-.667,1.194,1.194,0,0,1,.04-.222,1.6,1.6,0,0,1,.216-.367,1.245,1.245,0,0,1,.042-.151,15.437,15.437,0,0,0-1.583,4.235h.667a3.32,3.32,0,0,1-.359-.011Z" transform="translate(-12.082 -20.301)"/><path class="cls-1" d="M325.752,61.181c-.078.007-.158.016-.233.018a3.118,3.118,0,0,1-.419-.024,3.535,3.535,0,0,1-.534.056,3.261,3.261,0,0,1-.544-.05,3.447,3.447,0,0,1-.962-.007,3.636,3.636,0,0,1-.88.008h-1.673a4.761,4.761,0,0,1-1.326-.032c-.037.048-.069.086-.086.09h6.92C325.921,61.225,325.842,61.2,325.752,61.181Z" transform="translate(-12.082 -20.301)"/><path class="cls-1" d="M336.909,61.225c-.07,0-.139-.011-.208-.012q-1.08-.011-2.161-.029h-2.879c-.856,0-1.759.091-2.624.006-.071.018-.139.038-.217.05h11.091c-1.109-8.7-14.369-13.609-19.847-4.595a1.77,1.77,0,0,1,.258-.269,1.574,1.574,0,0,1,.259-.356,1.418,1.418,0,0,1,.25-.456,1.9,1.9,0,0,1,.334-.312,1.691,1.691,0,0,1,.409-.448c.01-.018.017-.035.027-.053a1.568,1.568,0,0,1,.229-.292,2.735,2.735,0,0,1,.6-.452,2.776,2.776,0,0,1,.608-.434,5.536,5.536,0,0,1,1.657-.834,7.679,7.679,0,0,1,3.292-.7,3.264,3.264,0,0,1,.984-.141,3.383,3.383,0,0,1,.679.072,3.182,3.182,0,0,1,.922.163.276.276,0,0,1,.027.008,2.9,2.9,0,0,1,1.165.286,2.5,2.5,0,0,1,.7.281,2.538,2.538,0,0,1,.342.111,2.908,2.908,0,0,1,.9.333,2.473,2.473,0,0,1,.718.424A2.15,2.15,0,0,1,335,54a2,2,0,0,1,.385.255,2.016,2.016,0,0,1,.9.754,2.27,2.27,0,0,1,.644.535,1.764,1.764,0,0,1,.651.713,1.766,1.766,0,0,1,.234.193,1.306,1.306,0,0,1,.195.323.741.741,0,0,1,.08.091,1.432,1.432,0,0,1,.163.148,1.368,1.368,0,0,1,.282.509,1.981,1.981,0,0,1,.142.241,1.43,1.43,0,0,1,.228.389,1.614,1.614,0,0,1,.17.289,1.248,1.248,0,0,1,.046.19,1.317,1.317,0,0,1,.146.336,1.5,1.5,0,0,1,.083.259.585.585,0,0,1,.141.317v.036a.475.475,0,0,1,.078.23c0,.016,0,.029,0,.044a.41.41,0,0,1,.057.175V60.1c.044.089.079.158.078.159a.272.272,0,0,0-.025.016.41.41,0,0,1,.056.172c.006.032-.016.059-.022.088a.516.516,0,0,1,.042.121c.007.135.022.268.038.4l.056.114h-.066a.163.163,0,0,0,.073.035c-.95.02-1.9.019-2.852.01A.8.8,0,0,1,336.909,61.225Z" transform="translate(-12.082 -20.301)"/></g></g></svg>