<svg id="svg2" xmlns="http://www.w3.org/2000/svg" viewBox="0 0 807.041 130.51"><defs><style>.cls-1{fill:#2b3a4d;}</style></defs><title>Ingram_Micro_logo_new</title><path id="path24" class="cls-1" d="M784,11.7c0-3.524,3.39-4.965,8.895-4.965,5.4,0,8.895,1.316,8.895,4.965,0,4.53-5.49,5.049-8.937,5.049C787.369,16.744,784,15.3,784,11.7Zm23.037,0c0-6.9-5.287-11.695-14.184-11.695-6.414,0-14.1,3.193-14.1,11.7,0,8.136,6.809,11.782,14.1,11.782,7.4,0,14.184-3.647,14.184-11.782Zm-23,32.4V39.179c0-3.038,1.92-4.145,3.474-4.145,1.725,0,3.537,1.167,3.537,4.145V44.09Zm11.74,0V39.405l10.857-4.21V28.064l-12.137,5.088a7.443,7.443,0,0,0-7.093-4.768c-5.072,0-8.255,3.314-8.255,9.922V50.5h27.485V44.09Zm-6.406,12.521c-6.617.721-10.623,4.242-10.623,11.14,0,8.252,6.53,12.336,14.143,12.336,7.492,0,14.142-3.965,14.142-12.137,0-6.332-3.721-10.658-10.014-11.339l-.4,6.248c2.646.363,5.168,1.764,5.168,4.771,0,4.849-4.849,5.289-8.614,5.289-3.33,0-9.251-.44-9.251-4.969,0-3.527,2.833-4.569,5.882-4.605l-.432-6.734Zm17.263,29.654H779.157v6.409h27.485Zm0,27.649v4.407l-22.393,6.623v.151h22.393V130.5H779.157V120.448l16.468-4.811-16.468-5.047V100.535h27.485v6.409H784.249v.158ZM240.636,130.5H136.614c-8.053-29.89-25.115-93-25.115-93h-.3v93H68.677V2H142.5c7.772,29.636,24.052,90.614,24.052,90.614h.3V2h42.62V21.521c-10.387,10.968-16.692,24.99-16.692,42.583,0,25.253,14.186,56.582,47.852,66.4ZM746.074,2V130.5H701.511V29.855h-.631L675.276,130.5H634.143l-25.5-100.645h-.692V130.5H530.04l-7.769-27.68H480.4l-7.763,27.68H398.174s-2.52-18.939-3.174-23.671c-2.206-15.92-7.01-19.778-16.517-19.778h-13V130.5H289.209c21.972-4.994,41.815-14.975,53.189-21.845L326.384,47.916,283.793,59.144l9.082,34.447c-2.671,1.892-11.536,5.006-17.61,5.006-20.332,0-30.006-20.38-30.006-37.938,0-28.259,28.8-39.136,54.191-39.136,5.9,0,13.53.514,14.6.634L308.731,2H397.5c35.528,0,49.3,16.843,49.3,34.755,0,27.137-25.878,32.241-30.813,33.106a1.3,1.3,0,0,0,0,.772c10.34,1.966,17.944,6.97,22.783,15.7C438.6,86.032,465.946,9.063,468.431,2h68.236L565.45,82.591h.389V2h73.382s17,70.361,17.1,70.365C661.864,48.934,672.979,2,672.979,2ZM0,2H49.442s-.075,85.394-.075,128.5c-.3,0-49.06.023-49.367,0Zm500.941,27.6L487.128,71.962h28.487L501.666,29.593ZM365.48,58.085h14.7c12.016,0,17.022-6.2,17.022-13.809,0-9.708-8.275-13.523-17.022-13.523-5.194,0-14.7,0-14.7,0V58.085"/></svg>