<svg id="Layer_1" data-name="Layer 1" xmlns="http://www.w3.org/2000/svg" viewBox="0 0 1010 359.582"><defs><style>.cls-1{fill:#8ea0b2;}.cls-2{fill:#2b3a4d;}.cls-3{fill:none;stroke:#2b3a4d;stroke-linecap:square;stroke-width:3px;}</style></defs><title>amazon_partner</title><g id="Page-1"><g id="Artboard"><g id="Group-4"><g id="Group-2"><g id="AmazonWebservices_Logo" data-name="AmazonWebservices Logo"><g id="g10"><g id="g12"><polyline id="path14" class="cls-1" points="161.209 75 127.5 63.75 127.5 15 161.25 25 161.209 75"/><polyline id="path16" class="cls-1" points="170 25 203.75 15 203.633 63.716 170 75 170 25"/><polyline id="path18" class="cls-1" points="196.875 9.721 165.42 0 134.375 9.721 165.465 18.055 196.875 9.721"/><polyline id="path20" class="cls-1" points="246.209 75 212.5 63.75 212.5 15 246.25 25 246.209 75"/><polyline id="path22" class="cls-1" points="255 25 288.75 15 288.633 63.716 255 75 255 25"/><polyline id="path24" class="cls-1" points="281.875 9.721 250.42 0 219.375 9.721 250.465 18.055 281.875 9.721"/><polyline id="path26" class="cls-1" points="33.75 96.25 0 86.25 0 135 33.709 146.25 33.75 96.25"/><polyline id="path28" class="cls-1" points="42.5 96.25 76.25 86.25 76.133 134.967 42.5 146.25 42.5 96.25"/><polyline id="path30" class="cls-1" points="69.375 80.971 37.92 71.25 6.875 80.971 37.965 89.305 69.375 80.971"/><polyline id="path32" class="cls-1" points="118.709 146.25 85 135 85 86.25 118.75 96.25 118.709 146.25"/><polyline id="path34" class="cls-1" points="127.5 96.25 161.25 86.25 161.133 134.967 127.5 146.25 127.5 96.25"/><polyline id="path36" class="cls-1" points="154.375 80.971 122.92 71.25 91.875 80.971 122.965 89.305 154.375 80.971"/><polyline id="path38" class="cls-1" points="76.209 217.5 42.5 206.25 42.5 157.5 76.25 167.5 76.209 217.5"/><polyline id="path40" class="cls-1" points="85 167.5 118.75 157.5 118.633 206.217 85 217.5 85 167.5"/><polyline id="path42" class="cls-1" points="111.875 152.221 80.42 142.5 49.375 152.221 80.465 160.555 111.875 152.221"/><path class="cls-2" d="M360.488,265.406l-2.48.009a2.532,2.532,0,0,0-2.356,1.611l-7.523,26.507-7.441-26.449a2.227,2.227,0,0,0-2.068-1.669h-2.936a2.2,2.2,0,0,0-2.043,1.686l-6.922,26.174-7.153-26.255a2.618,2.618,0,0,0-2.4-1.6l-3.569-.006a2.283,2.283,0,0,0-1.852.855,1.23,1.23,0,0,0-.209,1.115l11.05,39.12a2.173,2.173,0,0,0,2,1.651h3.549a2.146,2.146,0,0,0,2.041-1.69l6.8-26.059,7.4,26.089a2.167,2.167,0,0,0,1.986,1.66h3.491a2.1,2.1,0,0,0,2.029-1.664L362.516,267.4a1.268,1.268,0,0,0-.2-1.147,2.255,2.255,0,0,0-1.827-.842m30.684,16.609H372.425c.431-5.261,3.848-10.716,9.635-10.926C388.219,271.29,391.036,276.62,391.172,282.015Zm-9.126-16.889c-12.663,0-18.431,11.2-18.431,21.6,0,12.981,7.17,21.368,18.266,21.368,7.941,0,14-4.012,16.61-11.022a1.483,1.483,0,0,0-.122-1.226,2.07,2.07,0,0,0-1.369-.963l-3.515-.672a2.34,2.34,0,0,0-2.382,1.222c-1.708,3.9-4.82,6.105-8.727,6.22a10.128,10.128,0,0,1-8.791-5.685,18.585,18.585,0,0,1-1.5-8.142l25.451-.009a2.123,2.123,0,0,0,1.476-.63,1.612,1.612,0,0,0,.5-1.143c-.062-10.112-4.684-20.916-17.47-20.916Zm48.782,21.66c0,2.395-.434,14.354-8.931,14.66a9.478,9.478,0,0,1-7.332-4.257,16.024,16.024,0,0,1-2.052-7.66v-7.036c.138-5.39,3.932-11.305,9.357-11.535C430.4,271.3,430.828,284.2,430.828,286.786Zm-7.6-22.022h-.674a11.662,11.662,0,0,0-10.043,5.325l0-16.491a1.977,1.977,0,0,0-2.013-1.77h-3.66a2,2,0,0,0-2.029,1.77v51.48a1.988,1.988,0,0,0,2.016,1.784l1.074-.006a2.188,2.188,0,0,0,1.982-1.577l1.145-3.634a13.456,13.456,0,0,0,10.954,6h.656c11.293,0,16.349-10.985,16.349-21.871,0-5.419-1.337-10.6-3.665-14.215a14.6,14.6,0,0,0-12.088-6.791Zm55.829,20.864c-2.38-1.711-5.241-2.282-8.108-2.854l-5.5-1.019c-3.944-.648-6.226-1.706-6.226-5.186,0-3.679,3.812-5.085,7.045-5.173,3.947.1,6.916,1.861,8.357,4.959a2.135,2.135,0,0,0,1.89,1.221,1.935,1.935,0,0,0,.4-.043l3.43-.758a2.13,2.13,0,0,0,1.362-1.006,1.471,1.471,0,0,0,.139-1.215c-2.1-6.114-7.428-9.345-15.489-9.345-7.284.016-15.067,3.255-15.067,12.3,0,6.182,3.885,10.109,11.555,11.671l6.152,1.173c3.378.646,6.831,1.8,6.831,5.422,0,5.369-6.247,5.916-8.136,5.955-4.237-.091-9.035-1.981-10.2-5.983a2.042,2.042,0,0,0-2.312-1.3l-3.588.741a2.07,2.07,0,0,0-1.321.938,1.576,1.576,0,0,0-.2,1.242c1.851,6.641,8.263,10.646,17.15,10.713l.2,0c7.937,0,16.419-3.4,16.419-12.934a11.511,11.511,0,0,0-4.789-9.521m36.285-3.574H496.591c.429-5.266,3.845-10.724,9.633-10.924C512.38,271.325,515.2,276.655,515.344,282.054Zm-9.13-16.891c-12.667,0-18.435,11.2-18.435,21.6,0,12.98,7.171,21.366,18.268,21.366,7.943,0,14-4.012,16.614-11.021a1.485,1.485,0,0,0-.125-1.228,2.057,2.057,0,0,0-1.368-.961l-3.521-.672a2.3,2.3,0,0,0-2.377,1.223c-1.709,3.893-4.822,6.1-8.725,6.223A10.122,10.122,0,0,1,497.758,296a18.493,18.493,0,0,1-1.5-8.145l25.449-.006a2.115,2.115,0,0,0,1.468-.626,1.616,1.616,0,0,0,.5-1.146c-.059-10.112-4.676-20.916-17.465-20.916Zm41.5.476a13.02,13.02,0,0,0-1.437-.081c-4.271,0-7.74,2.322-10.148,6.758l.009-3.885a1.955,1.955,0,0,0-2.009-1.767h-3.178a1.94,1.94,0,0,0-1.97,1.782l0,37.742a1.93,1.93,0,0,0,1.97,1.778h3.708a2.027,2.027,0,0,0,2.06-1.777l0-19.028a15.915,15.915,0,0,1,1.791-8.3c2.141-3.983,5.131-5.937,9.141-5.968a1.944,1.944,0,0,0,1.888-1.879v-3.53a1.969,1.969,0,0,0-1.823-1.846m38.939-.742-2.929,0a2.615,2.615,0,0,0-2.379,1.625l-9.493,29.838-9.7-29.808a2.613,2.613,0,0,0-2.388-1.655l-4.182,0a2.362,2.362,0,0,0-1.89.871,1.228,1.228,0,0,0-.2,1.13l13.269,39.361a2.247,2.247,0,0,0,2,1.689h5.061a2.189,2.189,0,0,0,2.039-1.692l12.87-39.345a1.225,1.225,0,0,0-.194-1.132,2.361,2.361,0,0,0-1.891-.88m9.622-15.129a4.906,4.906,0,1,0,4.9,4.906,4.9,4.9,0,0,0-4.9-4.906m2.014,14.89-4.016,0a2.06,2.06,0,0,0-2.088,1.852l-.019,40.074a1.752,1.752,0,0,0,.682,1.324,2.247,2.247,0,0,0,1.411.512l4.045.006h0a2.038,2.038,0,0,0,2.082-1.839V266.506a2.039,2.039,0,0,0-2.1-1.848m37.534,27.175-3.354.012a2.167,2.167,0,0,0-2.07,1.54c-1.225,5.285-4,8.024-8.207,8.145-8.195-.244-8.831-11.666-8.831-15.161,0-6.97,2.413-14.492,9.152-14.69,4.068.125,7.026,3.041,7.914,7.794a2.2,2.2,0,0,0,1.93,1.831l3.589.035a2.024,2.024,0,0,0,1.906-1.934c-1.27-8.589-7.221-14.14-15.175-14.14l-.275.007-.312-.007c-11.567,0-16.746,10.8-16.746,21.5,0,9.809,4.366,21.262,16.681,21.262h.59c7.755,0,13.609-5.436,15.285-14.249a1.579,1.579,0,0,0-.405-1.182,2.367,2.367,0,0,0-1.672-.758m33.123-9.779H650.188c.428-5.268,3.846-10.724,9.637-10.924C665.982,271.325,668.8,276.655,668.943,282.054Zm-9.131-16.891c-12.664,0-18.432,11.2-18.432,21.6,0,12.98,7.171,21.366,18.269,21.366,7.939,0,13.99-4.01,16.61-11.02a1.5,1.5,0,0,0-.128-1.229,2.048,2.048,0,0,0-1.367-.961l-3.515-.672a2.3,2.3,0,0,0-2.378,1.223c-1.714,3.893-4.829,6.1-8.73,6.224A10.125,10.125,0,0,1,651.356,296a18.53,18.53,0,0,1-1.5-8.145l25.451,0a2.123,2.123,0,0,0,1.479-.633,1.613,1.613,0,0,0,.494-1.142c-.059-10.112-4.678-20.916-17.468-20.916Zm49.352,20.465c-2.384-1.712-5.249-2.283-8.11-2.854l-5.5-1.019c-3.94-.648-6.221-1.706-6.221-5.186,0-4.745,5.889-5.142,7.038-5.173,3.951.1,6.92,1.861,8.358,4.96a2.145,2.145,0,0,0,1.9,1.22,1.969,1.969,0,0,0,.4-.043l3.427-.758a2.137,2.137,0,0,0,1.362-1.007,1.476,1.476,0,0,0,.137-1.214c-2.1-6.114-7.426-9.345-15.491-9.345-7.281.016-15.063,3.255-15.063,12.3,0,6.184,3.884,10.11,11.553,11.671l6.155,1.173c3.377.646,6.831,1.8,6.831,5.422,0,5.369-6.247,5.916-8.136,5.955-3.929-.084-8.958-1.706-10.2-5.979a2.039,2.039,0,0,0-2.323-1.305l-3.581.741a2.084,2.084,0,0,0-1.325.943,1.572,1.572,0,0,0-.195,1.237c1.846,6.641,8.257,10.646,17.145,10.713l.2,0c7.939,0,16.421-3.4,16.421-12.934a11.5,11.5,0,0,0-4.786-9.521M545.894,187.5v-9.1a2.254,2.254,0,0,1,2.31-2.3l40.769,0a2.274,2.274,0,0,1,2.351,2.3v7.8c-.013,1.307-1.117,3.015-3.071,5.727l-21.117,30.151c7.835-.186,16.13.987,23.25,4.99a4.172,4.172,0,0,1,2.168,3.548v9.71c0,1.339-1.465,2.887-3,2.08a46.97,46.97,0,0,0-43.081.077c-1.416.756-2.9-.768-2.9-2.107v-9.226a11.01,11.01,0,0,1,1.516-6.253l24.469-35.1-21.3,0a2.271,2.271,0,0,1-2.359-2.287M397.181,244.317H384.775a2.335,2.335,0,0,1-2.216-2.1l.009-63.66a2.339,2.339,0,0,1,2.392-2.291l11.551-.006a2.351,2.351,0,0,1,2.26,2.138v8.317H399c3.008-8.041,8.681-11.786,16.322-11.786,7.756,0,12.62,3.745,16.093,11.786,3.013-8.041,9.842-11.786,17.141-11.786a17.591,17.591,0,0,1,14.351,6.96c3.936,5.361,3.125,13.126,3.125,19.961l-.008,40.174a2.341,2.341,0,0,1-2.39,2.293H451.247a2.33,2.33,0,0,1-2.228-2.287V208.279c0-2.678.228-9.379-.349-11.922-.929-4.29-3.709-5.489-7.292-5.489a8.233,8.233,0,0,0-7.416,5.218c-1.272,3.22-1.155,8.578-1.155,12.193v33.745a2.342,2.342,0,0,1-2.392,2.293h-12.39a2.332,2.332,0,0,1-2.225-2.287l-.016-33.751c0-7.1,1.161-17.545-7.637-17.545-8.914,0-8.567,10.178-8.567,17.545l-.007,33.745a2.337,2.337,0,0,1-2.392,2.293m229.355-56.4c-9.151,0-9.727,12.457-9.727,20.229s-.115,24.378,9.615,24.378c9.611,0,10.072-13.4,10.072-21.566,0-5.358-.229-11.786-1.85-16.877-1.393-4.422-4.17-6.164-8.11-6.164Zm-.112-12.989c18.407,0,28.366,15.805,28.366,35.891,0,19.428-11,34.835-28.366,34.835-18.064,0-27.908-15.81-27.908-35.5,0-19.825,9.955-35.225,27.908-35.225Zm52.241,69.388H666.306a2.33,2.33,0,0,1-2.226-2.287l-.018-63.689a2.347,2.347,0,0,1,2.378-2.075l11.509-.006a2.36,2.36,0,0,1,2.2,1.784v9.741h.235c3.469-8.709,8.335-12.856,16.9-12.856,5.559,0,11,2,14.475,7.5,3.24,5.089,3.24,13.66,3.24,19.822V242.31a2.349,2.349,0,0,1-2.37,2.007H700.19a2.348,2.348,0,0,1-2.209-2.007V207.743c0-6.965.813-17.148-7.759-17.148a8.126,8.126,0,0,0-7.175,5.091c-1.738,3.883-1.968,7.768-1.968,12.057v34.281a2.376,2.376,0,0,1-2.414,2.293M535.486,232.649c-2.271-3.133-4.687-5.684-4.687-11.5V201.829c0-8.19.581-15.707-5.45-21.348-4.758-4.564-12.651-6.174-18.681-6.174-11.8,0-24.974,4.408-27.737,19a2.178,2.178,0,0,0,1.85,2.59l12.019,1.3a2.61,2.61,0,0,0,2.154-2.278c1.035-5.024,5.239-7.45,9.97-7.45,2.556,0,5.457.938,6.961,3.22,1.743,2.549,1.511,6.041,1.511,8.993v1.609c-7.192.808-16.592,1.346-23.322,4.3-7.774,3.359-13.225,10.206-13.225,20.272,0,12.887,8.12,19.332,18.566,19.332,8.816,0,13.637-2.08,20.446-9.015,2.251,3.257,2.992,4.844,7.11,8.268a2.573,2.573,0,0,0,2.928-.289l.033.028c2.474-2.209,6.976-6.115,9.508-8.238C536.45,235.118,536.273,233.779,535.486,232.649Zm-24.412-5.58c-1.973,3.493-5.108,5.639-8.589,5.639-4.752,0-7.536-3.623-7.536-9,0-10.561,18.447-9.8,18.447-9.8C513.4,218.745,513.511,222.776,511.074,227.069Zm-138.189,5.58c-2.265-3.133-4.682-5.684-4.682-11.5V201.829c0-8.19.582-15.707-5.452-21.348-4.759-4.564-12.646-6.174-18.683-6.174-11.8,0-24.974,4.408-27.737,19a2.182,2.182,0,0,0,1.851,2.59l12.024,1.3a2.616,2.616,0,0,0,2.154-2.278c1.031-5.024,5.24-7.45,9.971-7.45,2.549,0,5.453.938,6.96,3.22,1.743,2.549,1.509,6.041,1.509,8.993v1.609c-7.193.808-16.591,1.346-23.323,4.3-7.773,3.359-13.23,10.206-13.23,20.272,0,12.887,8.123,19.332,18.565,19.332,8.822,0,13.646-2.08,20.451-9.015,2.253,3.257,2.991,4.844,7.109,8.268a2.582,2.582,0,0,0,2.934-.289l.029.028c2.472-2.209,6.976-6.115,9.511-8.238C373.854,235.118,373.675,233.779,372.885,232.649Zm-24.4-5.58c-1.971,3.493-5.109,5.639-8.585,5.639-4.762,0-7.545-3.623-7.545-9,0-10.561,9.475-12.484,18.449-12.484v2.683C350.8,218.745,350.914,222.776,348.481,227.069Z" transform="translate(-135 -91)"/></g></g></g><path id="Line" class="cls-3" d="M790.5,127.5V354.817" transform="translate(-135 -91)"/><g id="Group"><path id="Partner-Network" class="cls-2" d="M865.848,229.551h5.888v-19.39h9.969c11.226-.078,20.018-6.358,20.018-17.977v-.157c0-10.833-7.614-17.427-19.311-17.427H865.848Zm5.888-24.728V180.017H882.1c8.321,0,13.659,4.239,13.659,12.246v.078c0,7.537-5.338,12.482-13.895,12.482Zm48.435,25.592a14.113,14.113,0,0,0,12.482-6.83v5.966h5.574v-26.3c0-4.788-1.413-8.557-3.926-11.069-2.669-2.669-6.515-4.082-11.461-4.082a28.165,28.165,0,0,0-12.874,3.3l1.8,4.632a22.307,22.307,0,0,1,10.441-2.748c6.594,0,10.441,3.533,10.441,10.127v2.434a33.6,33.6,0,0,0-10.519-1.649c-9.028,0-15.073,4.789-15.073,13.188v.314C907.061,225.783,913.342,230.415,920.171,230.415Zm1.256-4.71c-4.867,0-8.713-3.219-8.713-8.322v-.235c0-5.181,3.611-8.557,10.126-8.557a28.825,28.825,0,0,1,9.891,1.649v5.1C932.731,221.309,927.707,225.783,921.427,225.705Zm27.79,3.846h5.652V210.083c0-10.519,6.123-15.858,13.738-15.858h.314V188.1c-6.673-.314-11.619,3.847-14.052,9.577v-9.027h-5.652Zm39.565.628a13.794,13.794,0,0,0,6.123-1.413V223.9a12.1,12.1,0,0,1-4.789,1.1c-3.532,0-5.887-1.57-5.887-5.888V193.676h10.676v-5.024H984.229V176.72h-5.653v11.932h-4.945v5.024h4.945v26.376C978.576,227.353,982.973,230.179,988.782,230.179Zm15.229-.628h5.652V204.666c0-6.987,4.4-11.7,10.362-11.7s9.421,4.082,9.421,11.383v25.2h5.652V202.782c0-9.185-5.024-14.915-13.346-14.915-6.123,0-9.812,3.375-12.089,7.457v-6.672h-5.652Zm58.091.864a18.5,18.5,0,0,0,14.052-6.123l-3.219-3.612a14.386,14.386,0,0,1-10.6,4.711c-6.437,0-12.011-5.025-12.639-14.052h27.476c.078-.707.078-1.806.078-2.355,0-12.325-6.123-21.117-16.407-21.117-9.577,0-16.878,8.713-16.878,21.2v.393C1043.968,222.408,1052.133,230.415,1062.1,230.415Zm-12.4-23.472c.549-8.557,5.1-14.131,11.147-14.131,6.673,0,10.362,6.359,10.755,14.131Zm36.66,22.608h5.652V210.083c0-10.519,6.123-15.858,13.738-15.858h.314V188.1c-6.672-.314-11.618,3.847-14.052,9.577v-9.027h-5.652Zm-220.511,78.5h5.731V263.778l29.438,44.275h4.945V253.1h-5.809v43.254L871.422,253.1h-5.574Zm68.453.863a18.5,18.5,0,0,0,14.052-6.123l-3.218-3.611a14.389,14.389,0,0,1-10.6,4.71c-6.437,0-12.011-5.024-12.639-14.052h27.476c.078-.706.078-1.8.078-2.355,0-12.324-6.123-21.117-16.407-21.117-9.577,0-16.877,8.714-16.877,21.2v.392C916.168,300.909,924.332,308.916,934.3,308.916Zm-12.4-23.472c.55-8.556,5.1-14.13,11.147-14.13,6.673,0,10.363,6.359,10.755,14.13Zm48.514,23.237a13.8,13.8,0,0,0,6.123-1.413V302.4a12.105,12.105,0,0,1-4.788,1.1c-3.533,0-5.888-1.57-5.888-5.888V272.178h10.676v-5.025H965.859V255.221h-5.652v11.932h-4.946v5.025h4.946v26.376C960.207,305.855,964.6,308.681,970.412,308.681Zm24.336-.314h5.1l9.342-31.872,9.263,31.872h5.1l12.246-41.214h-5.73l-9.107,32.579-9.341-32.657h-4.789L997.5,299.732l-9.027-32.579H982.5Zm63.9.549c10.519,0,18.213-9.184,18.213-21.117v-.471c0-11.932-7.615-20.96-18.134-20.96s-18.213,9.107-18.213,21.039v.549C1040.514,299.889,1048.129,308.916,1058.648,308.916Zm.079-5.1c-6.987,0-12.4-6.83-12.4-16.015v-.392c0-9.106,5.1-15.936,12.325-15.936,6.987,0,12.482,6.83,12.482,16.014v.393C1071.13,296.906,1065.949,303.814,1058.727,303.814Zm27.554,4.239h5.652V288.584c0-10.519,6.123-15.857,13.738-15.857h.314V266.6c-6.673-.314-11.619,3.847-14.052,9.577v-9.028h-5.652Zm27.554,0h5.652v-11.3l6.751-7.929,12.089,19.233H1145l-14.915-23.708,14.366-17.192h-6.83l-18.134,22.295V251.375h-5.652Z" transform="translate(-135 -91)"/></g></g><g id="Group-3"><path id="CONSULTING-PARTNER" class="cls-1" d="M349.705,450.534a14.419,14.419,0,0,0,10.968-4.742l-3.257-3.927c-2.107,2.011-4.215,3.5-7.424,3.5-5.269,0-9.244-4.742-9.244-12.022v-.192c0-7.136,3.975-11.926,9.244-11.926,3.018,0,5.221,1.437,7.185,3.257l3.352-4.263a14.607,14.607,0,0,0-10.537-4.167c-8.67,0-14.992,6.945-14.992,17.1v.336C335,443.733,341.131,450.534,349.705,450.534Zm35.609.048c8.766,0,14.9-7.137,14.9-17.1V433c0-9.915-6.083-17-14.8-17-8.765,0-14.9,7.137-14.9,17.1v.479C370.514,443.493,376.6,450.582,385.314,450.582Zm.1-5.125c-5.269,0-9.148-4.838-9.148-12.022V433.1c0-7.232,3.784-11.974,9.052-11.974,5.317,0,9.149,4.838,9.149,12.022v.336C394.463,440.715,390.679,445.457,385.41,445.457Zm27.8,4.6h5.461V427.016l15.183,23.039h4.694V416.527h-5.412V438.9l-14.753-22.368h-5.173Zm49.309.431c6.274,0,10.873-3.784,10.873-9.675v-.1c0-4.885-2.874-7.472-9.1-9.867-5.7-2.2-6.945-3.448-6.945-5.8v-.048c0-2.2,1.868-3.88,4.886-3.88a12.194,12.194,0,0,1,7.519,3.161l3.162-4.263a15.593,15.593,0,0,0-10.538-3.927c-6.226,0-10.633,3.88-10.633,9.388v.1c0,5.364,3.3,7.711,9.675,10.106,5.317,1.964,6.419,3.353,6.419,5.46v.048c0,2.491-2.06,4.263-5.269,4.263-3.545,0-6.323-1.724-8.813-3.975l-3.353,4.167A17.49,17.49,0,0,0,462.521,450.486Zm35.514.1c7.568,0,12.5-4.5,12.5-13.507V416.527h-5.508V437.41c0,5.317-2.682,8.047-6.9,8.047-4.311,0-6.946-2.826-6.946-8.238V416.527h-5.556v20.74C485.629,446.032,490.563,450.582,498.035,450.582Zm26.365-.527h19.926V444.93h-14.37v-28.4H524.4Zm34.8,0h5.556V421.7h8.813v-5.173H550.383V421.7H559.2Zm26.844,0H591.6V416.527H586.04Zm20.043,0h5.46V427.016l15.184,23.039h4.694V416.527h-5.412V438.9l-14.753-22.368h-5.173Zm53.667.479a18.259,18.259,0,0,0,11.448-4.071v-15.04h-12.31v4.886h7.041v7.376a10.387,10.387,0,0,1-5.939,1.772c-5.7,0-9.819-4.5-9.819-12.07V433.1c0-6.945,4.071-11.878,9.531-11.878a10.292,10.292,0,0,1,7.425,3.017l3.3-4.406a15.272,15.272,0,0,0-10.633-3.784c-9,0-15.375,7.232-15.375,17.1v.384C644.423,443.829,650.65,450.534,659.75,450.534Zm44.3-.479h5.556V439.182h4.838c6.945-.1,12.4-3.975,12.4-11.4v-.1c0-6.945-4.741-11.16-12.07-11.16H704.051Zm5.556-15.9V421.6h4.838c4.263,0,6.754,2.2,6.754,6.227v.048c0,3.736-2.491,6.274-6.754,6.274Zm23.875,15.9h5.6l2.778-7.9h13.028l2.778,7.9h5.8l-12.31-33.72h-5.364Zm10.107-12.836,4.789-13.46,4.79,13.46Zm31.634,12.836h5.556V438.224h5.364a.833.833,0,0,0,.336-.047l7.136,11.878h6.419l-7.9-12.98a9.811,9.811,0,0,0,6.945-9.819v-.192a10.164,10.164,0,0,0-2.778-7.376c-2.012-2.012-5.125-3.161-8.957-3.161H775.223Zm5.556-16.812V421.6h6.083c4.167,0,6.61,1.964,6.61,5.748v.1c0,3.5-2.395,5.8-6.706,5.8Zm37.765,16.812H824.1V421.7h8.813v-5.173H809.731V421.7h8.813Zm26.557,0h5.46V427.016l15.184,23.039h4.694V416.527h-5.413V438.9l-14.752-22.368H845.1Zm39.585,0h21.363v-5.029H890.194v-9.34h13.843v-5.029H890.194v-9.1h15.615v-5.029H884.686Zm34.173,0h5.556V438.224h5.365a.83.83,0,0,0,.335-.047l7.137,11.878h6.418l-7.9-12.98a9.811,9.811,0,0,0,6.945-9.819v-.192a10.164,10.164,0,0,0-2.778-7.376c-2.012-2.012-5.125-3.161-8.957-3.161H918.859Zm5.556-16.812V421.6H930.5c4.167,0,6.61,1.964,6.61,5.748v.1c0,3.5-2.395,5.8-6.706,5.8Z" transform="translate(-135 -91)"/></g></g></g></g></svg>